PathFileType	4	(X/Y/Z)	pose_F01_0-95.trc
DataRate	CameraRate	NumFrames	NumMarkers	Units	OrigDataRate	OrigDataStartFrame	OrigNumFrames
30	30	8	21	m	30	59	95
Frame#	Time	CHip			RHip			RKnee			RAnkle			RBigToe			RSmallToe			RHeel			LHip			LKnee			LAnkle			LBigToe			LSmallToe			LHeel			Neck			Nose			RShoulder			RElbow			RWrist			LShoulder			LElbow			LWrist			
		X1	Y1	Z1	X2	Y2	Z2	X3	Y3	Z3	X4	Y4	Z4	X5	Y5	Z5	X6	Y6	Z6	X7	Y7	Z7	X8	Y8	Z8	X9	Y9	Z9	X10	Y10	Z10	X11	Y11	Z11	X12	Y12	Z12	X13	Y13	Z13	X14	Y14	Z14	X15	Y15	Z15	X16	Y16	Z16	X17	Y17	Z17	X18	Y18	Z18	X19	Y19	Z19	X20	Y20	Z20	X21	Y21	Z21	
59	1.9666666666666666	-0.2070440480196014	1.830915935682316	-0.569522407239011	-0.22121295425651172	1.8302071898735854	-0.49742331819886665	-0.2307719868697569	1.7032641931555943	-0.4568712947594612	-0.21309442370060333	1.5828393101819274	-0.4628484464422434	-0.24121557704986293	1.5487157309016961	-0.45190154655476966	-0.2288504109005029	1.5526957721057293	-0.44696126726681895	-0.2033393662979839	1.5794703114367548	-0.46894484106839646	-0.19101015482111694	1.8315608816907571	-0.6414315482202325	-0.1991169592310582	1.7025601724833963	-0.6101215774193932	-0.19490759021942422	1.56527242568651	-0.6203777580014949	-0.22345615885313258	1.5297483549012636	-0.6047553598322521	-0.21165838781177565	1.535112568379562	-0.6381965802881108	-0.18378008337608223	1.5560240688736575	-0.6177805519412848	-0.1995263260411793	1.9887215705272752	-0.6213085450645084	-0.21323062869476267	2.0338310924382994	-0.6800424044152203	-0.2220495324524596	1.9881758560002276	-0.5217804145864972	-0.22923321862979998	1.9131845283611664	-0.4470164786500854	-0.23265631683726115	1.9246448688811855	-0.5404589486092037	-0.17598250350188702	1.9878678786797614	-0.7182179406723354	-0.16300883107902722	1.9093451961988523	-0.7478971780171345	-1.3754442535747582	1.8491322037011748	0.5400588844695957
60	2.0	-0.2134914923270387	1.8341590491192015	-0.5455824964261438	-0.2262401991306386	1.8349252292726552	-0.4790651710935234	-0.2367070224773887	1.706444244817495	-0.41897209651878725	-0.21309442370060333	1.5828393101819274	-0.4628484464422434	-0.24121557704986293	1.5487157309016961	-0.45190154655476966	-0.2288504109005029	1.5526957721057293	-0.44696126726681895	-0.2033393662979839	1.5794703114367548	-0.46894484106839646	-0.20019147974132032	1.8334490509608057	-0.615172221958502	-0.20198045559667965	1.7049447799230713	-0.6029182466837826	-0.1946709120220242	1.5665555099573463	-0.6208151602916081	-0.22119005575331815	1.5313815724127973	-0.6075403352608694	-0.21184518294542182	1.5366073901497344	-0.6380525156992749	-0.18357909989711604	1.5547261637376202	-0.617993644497627	-0.20632504073062355	1.9905866817680025	-0.5977921111293805	-0.2182567563317969	2.0358841824595357	-0.6588502793228432	-0.22633098265895862	1.990209756355611	-0.5009768935184955	-0.23279177835562484	1.9136637348995624	-0.42506886713907566	-0.2440791437304812	1.9281284812808983	-0.5158986570728334	-0.1843231496278356	1.9898809693686264	-0.6976911401188874	-0.16854127200071956	1.9083770884116975	-0.7256600680606891	-1.3811974435905898	1.8517450124952204	0.5502757070464694
61	2.033333333333333	-0.21660955022937334	1.829394669012316	-0.5194311116776299	-0.2299512265471763	1.8286201936665853	-0.44715041496715635	-0.23491009491375328	1.699985314756072	-0.39729850736159666	-0.21309442370060333	1.5828393101819274	-0.4628484464422434	-0.24121557704986293	1.5487157309016961	-0.45190154655476966	-0.2288504109005029	1.5526957721057293	-0.44696126726681895	-0.2033393662979839	1.5794703114367548	-0.46894484106839646	-0.2051631132083962	1.829776500506741	-0.5837666437735622	-0.2060422584770648	1.6998385447529394	-0.5896887973163777	-0.19451252973719835	1.565133000751612	-0.6209049469125644	-0.22234310384378445	1.5296381591171186	-0.6100675794924785	-0.21166592234459633	1.5351969840727984	-0.6383002309162912	-0.1834586602424484	1.553364484346932	-0.618128385291482	-0.2111050464654494	1.9873645717923094	-0.5755464565177477	-0.22112120810213262	2.0364473278237085	-0.6401569167001373	-0.22941117373776687	1.9879685589314706	-0.4754384215593358	-0.23562071768581086	1.911851470316541	-0.39954593016211903	-0.24464855868662713	1.929361945021777	-0.49279185206669246	-0.18896056060451266	1.986322404018388	-0.6725809575446462	-0.17277424016460846	1.9053904124640155	-0.6972799254543246	-1.435389419699641	1.8548707238738993	0.6376840909828599
62	2.066666666666667	-0.22386405649826377	1.8286370678043644	-0.4893032696905525	-0.23351072215698376	1.8283291878092174	-0.4246358253775132	-0.2395289647841103	1.6974113467152765	-0.3776636433407596	-0.21309442370060333	1.5828393101819274	-0.4628484464422434	-0.24121557704986293	1.5487157309016961	-0.45190154655476966	-0.2288504109005029	1.5526957721057293	-0.44696126726681895	-0.2033393662979839	1.5794703114367548	-0.46894484106839646	-0.20973525147732766	1.8306429809799596	-0.5618117919008421	-0.2121554946004796	1.7041517789715475	-0.5619447164072556	-0.19885755549592882	1.5712587549849975	-0.600107187549074	-0.21680133350539044	1.53415521173977	-0.6036032236609791	-0.20795078746968923	1.5422664455537898	-0.63853808199055	-0.19208336949381724	1.561897259277037	-0.593012286839057	-0.21585837149490686	1.9851591776233517	-0.5453346483451462	-0.22714852277893918	2.0342741682881584	-0.6131418966029794	-0.2351539174151226	1.9872722784999446	-0.4514500259551541	-0.23881777427603326	1.912296258958349	-0.3689831178375856	-0.24644782333228896	1.9258437326575957	-0.4724368617287092	-0.19367964801005783	1.982823222529241	-0.6388940494740396	-0.17590566582304623	1.9006554466100258	-0.665197381205679	-0.21338543660965123	1.930679863405046	-0.6165248502299963
63	2.1	-0.22384423896527728	1.8335651756531743	-0.4721824245927088	-0.23610647406943933	1.8312200319342151	-0.3996381286714272	-0.23925035761250116	1.699181836155683	-0.36892707403727293	-0.21309442370060333	1.5828393101819274	-0.4628484464422434	-0.24121557704986293	1.5487157309016961	-0.45190154655476966	-0.2288504109005029	1.5526957721057293	-0.44696126726681895	-0.2033393662979839	1.5794703114367548	-0.46894484106839646	-0.21224378756669215	1.8322893704961396	-0.5334386041343643	-0.2227979190837224	1.7055949341030008	-0.5330320605062222	-0.2036574142464013	1.574719794989117	-0.5606334957540459	-0.22105092870021179	1.5394313837820206	-0.5740199848660185	-0.2120893759080907	1.5468103346486506	-0.6011220855062607	-0.20044065029379818	1.5624239681867458	-0.5493032254128221	-0.2181496094575712	1.9870536591423484	-0.5260529023092448	-0.2316974608685258	2.037510490215206	-0.5926508247734361	-0.23785305308163865	1.9876693169273247	-0.4268779344836089	-0.24181179001199765	1.9138192726496603	-0.34710812897988064	-0.24750512024743643	1.9244879900431617	-0.4580582658220323	-0.1954252252446688	1.9838352481930246	-0.625123122301498	-0.18433272087069139	1.9032605244823637	-0.6356930001851916	-0.22666212158412893	1.9298085979696822	-0.5769642615254927
64	2.1333333333333333	-0.22776786986695363	1.8300474325013583	-0.44971003483403277	-0.23958498404974463	1.8300716200982174	-0.3860690612714395	-0.23874128535858888	1.697657851125553	-0.36008987686601157	-0.21309442370060333	1.5828393101819274	-0.4628484464422434	-0.24121557704986293	1.5487157309016961	-0.45190154655476966	-0.2288504109005029	1.5526957721057293	-0.44696126726681895	-0.2033393662979839	1.5794703114367548	-0.46894484106839646	-0.21635626668643432	1.8307936902028694	-0.5198486844470135	-0.22714538288648584	1.703143719182408	-0.4970042728972717	-0.20993190446736523	1.57870512303889	-0.4888295376654635	-0.22196270832954454	1.5556443829611784	-0.49657904000970865	-0.21371176466489014	1.559833679351439	-0.523500380326553	-0.2068607238750392	1.5705868533498264	-0.46916720860237476	-0.2211866963900214	1.9877444828327733	-0.509718434986876	-0.2353481432557601	2.0417531267891285	-0.569455202729993	-0.2385896944060533	1.9896611077273627	-0.41324453992210236	-0.2402811781756472	1.9147199030835296	-0.33476396859916063	-0.24423449558976704	1.9254711384617236	-0.43953883994383514	-0.20014550403498166	1.9855573251815324	-0.6039135324354401	-0.1870125955638737	1.9039839894012476	-0.6161749477980232	-0.22488906379143983	1.9282743063578593	-0.5704262347990706
65	2.1666666666666665	-0.2297996304093489	1.8269717850673028	-0.4379904278167966	-0.23770239656685843	1.826726324379583	-0.369954219728006	-0.24159801797506153	1.6984081082239657	-0.3520427720335405	-0.21309442370060333	1.5828393101819274	-0.4628484464422434	-0.24121557704986293	1.5487157309016961	-0.45190154655476966	-0.2288504109005029	1.5526957721057293	-0.44696126726681895	-0.2033393662979839	1.5794703114367548	-0.46894484106839646	-0.21773677102144567	1.8264797100760684	-0.5047199162836657	-0.2281848840941815	1.7003170894877575	-0.4642573552024437	-0.2208811799700293	1.5740665522153143	-0.42587293372683255	-0.22196270832954454	1.5556443829611784	-0.49657904000970865	-0.23305915132343671	1.5489931859090909	-0.46075451023760783	-0.21329539058129038	1.5614855925439244	-0.418699635764074	-0.2214573062522802	1.9863076481150768	-0.50114281729379	-0.24046220862216047	2.0423989609519486	-0.5512800678048773	-0.24024453385659394	1.9880714061169646	-0.401826939368397	-0.24195454943053776	1.913289782143059	-0.323850309138763	-0.24505279499047727	1.9247885240113096	-0.425317521120907	-0.2035392912907703	1.9841629651620223	-0.5961771124743963	-0.19034461927260113	1.902506907934926	-0.6080781041589407	-0.23506606187697562	1.9289563739881102	-0.5590080836429483
66	2.2	-0.2298651831095602	1.8257095445362717	-0.428730830406983	-0.2394468456813875	1.8249231885892696	-0.3585209508185334	-0.2500335989109539	1.701286565693725	-0.3334493379580726	-0.21309442370060333	1.5828393101819274	-0.4628484464422434	-0.24121557704986293	1.5487157309016961	-0.45190154655476966	-0.2288504109005029	1.5526957721057293	-0.44696126726681895	-0.2033393662979839	1.5794703114367548	-0.46894484106839646	-0.2169281352620859	1.8230960558060108	-0.4920420631503657	-0.22773409999763983	1.7017560184777378	-0.4602276691112431	-0.21912050360345475	1.575007657006027	-0.42807712796368075	-0.22196270832954454	1.5556443829611784	-0.49657904000970865	-0.2363798729077666	1.547874338664925	-0.46095255292138204	-0.20856835502892906	1.562595578418075	-0.42017835188995073	-0.22443909764883754	1.9849038380088568	-0.4934887597631067	-0.24074896030592385	2.0432193525176543	-0.534734387752559	-0.23909595389293542	1.98668353940582	-0.3899033327130904	-0.23922725226900365	1.9094875599040075	-0.3218509942476672	-0.2457241510726605	1.9239174207812204	-0.41104982337931	-0.20576701660099161	1.98161164534235	-0.5933416737669139	-0.19194537786979285	1.8998229821734036	-0.6022475486542835	-0.23739220041514852	1.927084199814714	-0.5480513315631345
